<?xml version="1.0" encoding="UTF-8"?>
<!DOCTYPE svg PUBLIC "-//W3C//DTD SVG 1.1//EN" "http://www.w3.org/Graphics/SVG/1.1/DTD/svg11.dtd">
<!-- Creator: CorelDRAW -->
<svg xmlns="http://www.w3.org/2000/svg" xml:space="preserve" width="91.3731mm" height="110.067mm" style="shape-rendering:geometricPrecision; text-rendering:geometricPrecision; image-rendering:optimizeQuality; fill-rule:evenodd; clip-rule:evenodd"
viewBox="0 0 119.453 143.891"
 xmlns:xlink="http://www.w3.org/1999/xlink">
 <defs>
  <style type="text/css">
   <![CDATA[
    .str1 {stroke:black;stroke-width:0.261462}
    .str2 {stroke:black;stroke-width:0.653655}
    .str0 {stroke:black;stroke-width:1.96096}
    .str3 {stroke:#0D0D0D;stroke-width:1.96096}
    .fil0 {fill:black}
    .fil2 {fill:#00A4E8}
    .fil1 {fill:#0772B1}
    .fil15 {fill:#212125}
    .fil13 {fill:#F0C900}
    .fil16 {fill:white}
    .fil3 {fill:#0D0D0D}
    .fil6 {fill:#942921}
    .fil12 {fill:#A42D22}
    .fil11 {fill:#AE816C}
    .fil5 {fill:#B3C758}
    .fil9 {fill:#C2A28E}
    .fil7 {fill:#DDB9A1}
    .fil8 {fill:#EBCDBB}
    .fil14 {fill:#EC1A23}
    .fil4 {fill:#EEDAC9}
    .fil10 {fill:#FEFDFE}
   ]]>
  </style>
 </defs>
 <g>
  <metadata id="CorelCorpID_0Corel-Layer"/>
  <path class="fil0 str0" d="M80.5164 124.295l0.635614 1.90684c3.67707,-0.167205 7.50879,0.953421 11.4411,0.953421 2.23236,0 5.76158,-2.02385 7.62737,-2.86026 4.3723,-1.95992 11.5086,0.703202 4.7671,-6.03833 -2.44035,-2.44035 -13.0786,-9.53996 -15.5725,-8.58079 -1.48628,0.571687 -4.81822,5.08857 -5.40272,6.03833 -1.80958,2.94092 -3.49588,4.56094 -3.49588,8.58079z"/>
  <path class="fil1" d="M80.8342 123.977l0.635614 1.90684c3.67707,-0.167205 7.50879,0.953421 11.4411,0.953421 2.23236,0 5.76158,-2.02385 7.62737,-2.86026 4.3723,-1.95992 11.5086,0.703202 4.7671,-6.03833 -2.44035,-2.44035 -13.0786,-9.53996 -15.5725,-8.58079 -1.48628,0.571687 -4.81822,5.08857 -5.40272,6.03833 -1.80958,2.94092 -3.49588,4.56094 -3.49588,8.58079z"/>
  <path class="fil0 str0" fill = "black" d="M36.9769 74.7167c-1.60642,0.0763469 -9.7005,1.11971 -11.1232,2.54246 -0.990156,0.990156 -0.635614,4.26457 -0.635614,5.72053 0,4.55794 2.19092,3.88715 4.13149,6.99175 1.0635,1.7012 4.48773,4.40302 6.67395,4.7671 3.87578,0.64568 7.00744,-4.19725 6.03833,-7.62737 -0.302642,-1.07121 -1.13697,-5.50286 -1.90684,-6.03833 -1.35542,-0.942701 -3.17807,-3.03087 -3.17807,-6.35614z"/>
  <path class="fil2" fill = "#00A4E8" d="M37.2947 74.3989c-1.60642,0.0763469 -9.7005,1.11971 -11.1232,2.54246 -0.990156,0.990156 -0.635614,4.26457 -0.635614,5.72053 0,4.55794 2.19092,3.88715 4.13149,6.99175 1.0635,1.7012 4.48773,4.40302 6.67395,4.7671 3.87578,0.64568 7.00744,-4.19725 6.03833,-7.62737 -0.302642,-1.07121 -1.13697,-5.50286 -1.90684,-6.03833 -1.35542,-0.942701 -3.17807,-3.03087 -3.17807,-6.35614z"/>
  <path class="fil3" d="M-0 64.8616l0 1.54968c0.335194,0.528153 0.445923,1.33215 0.973946,2.12542 0.317415,0.476776 0.924791,1.35241 1.3511,1.6378 0.249958,0.935511 3.61811,3.10957 4.68579,3.6172 1.63191,0.775758 4.47087,1.47438 6.82899,1.47438l0.442917 0c4.25817,0 9.57029,-1.15096 12.6885,-2.36858 1.9326,-0.75471 3.50464,-1.40941 5.24806,-2.28021 0.532729,-0.266038 4.73429,-2.65645 4.76096,-2.65645 0.197796,0 0.984012,1.31685 1.10716,1.54955 -0.48828,0.922568 -1.41516,3.34946 -1.78696,4.41204 -0.446054,1.27489 -1.19514,3.01727 -1.79324,4.29504 -1.38287,2.95452 -2.23328,5.78171 -3.38332,8.90382 -0.837855,2.27446 -1.92998,7.30721 -2.23628,10.0505 -0.415202,3.71799 -0.875636,6.92194 -0.875636,11.3 0,4.38955 0.841515,7.77431 1.66081,11.2899 -0.745559,-0.499131 -1.77049,-1.59531 -2.62704,-2.24413 -0.92283,-0.698888 -1.91926,-1.32953 -2.98341,-1.88749 -1.2039,-0.6313 -5.43815,-2.84157 -6.9009,-2.84157l0 0.664113c1.74853,0.407227 5.83583,2.72326 7.2876,3.67249 1.29659,0.84766 5.30036,3.92219 5.66653,5.29304 -5.83178,-3.08486 -13.6416,-3.87408 -22.5867,-3.87408 0.531552,0.793668 2.00607,1.48602 3.09741,1.77376 0.963749,0.25401 3.24017,-0.00274535 4.54225,-0.00274535l1.10716 0c3.14656,0 6.56505,1.0095 8.87166,1.86749 1.39032,0.517041 6.58113,2.73541 7.18262,3.55614l-5.31461 0c-1.06807,-0.715098 -1.03277,-1.00088 -2.63331,-1.35215 -0.887925,-0.19492 -2.10804,-0.64019 -3.23481,-0.64019l-0.221328 0c-0.674833,0 -1.0129,0.206947 -1.55008,0.332057 0.0652348,0.784778 3.58281,1.41529 4.31804,1.88161 -3.97671,0 -8.4579,0.480306 -12.0427,1.02192 -2.27289,0.343561 -9.03508,1.63244 -10.6548,2.40937l0 0.442655 4.20731 -0.442655c2.09967,-0.174657 4.46054,-0.621626 6.64244,-0.775627 1.98868,-0.140274 4.93418,-0.169297 6.79879,-0.508413 2.04202,-0.371537 5.06831,0.0349052 7.08601,-0.332057 1.41111,-0.256756 5.4724,-0.154916 7.15255,-0.154916l4.20731 0c10.4986,0 21.6324,0.737453 30.3649,2.51801 2.34126,0.477429 4.51179,0.848182 6.7703,1.42248 2.21053,0.562274 4.40315,1.13997 6.57538,1.61727 1.57531,0.346176 11.8667,3.24579 12.6456,3.73982l5.4252 1.77101 5.09302 1.88161 3.54307 1.32823 2.52886 0.930935 0.537958 -0.654962c-1.03944,-0.278718 -4.19084,-1.77232 -5.28192,-2.26753 -1.56668,-0.711176 -3.57798,-1.59936 -5.29212,-2.12555 -3.42214,-1.05055 -7.29466,-2.88262 -10.9828,-3.74152 0.299374,-0.408534 1.10716,-0.646465 1.10716,-1.43896l0 -0.332057c-0.929628,0.21649 -1.68408,1.34078 -2.70142,1.15671 -1.1086,-0.200541 -2.04816,-0.620841 -3.1667,-0.713922 0.752487,-0.653916 4.98242,-1.86945 4.98242,-2.76718 0,-0.155047 -0.150994,-0.221328 -0.332187,-0.221328l-1.10716 0c-0.927013,0 -4.16914,2.00489 -4.98242,2.43499l-4.08822 -0.923353c0.748696,-0.995124 9.44923,-3.12983 11.6598,-3.57209 3.83042,-0.766214 9.31641,-1.59217 13.6865,-1.59217l0.253487 -0.874982c-4.59872,-0.0105892 -9.59591,0.743598 -13.6254,1.45347 -1.56746,0.276104 -4.7373,0.838901 -6.19155,1.33699 -0.422,0.144458 -5.82668,1.51413 -5.90185,1.51569 0.495209,-0.739414 5.24728,-3.95644 6.34882,-4.50028 2.34453,-1.15749 4.719,-2.49304 7.5569,-3.18186 5.74916,-1.39542 11.4957,-2.94367 18.6456,-2.94367l0.775104 0 0.229433 -0.883218 -1.22273 -0.138052 -0.9997 0.0251003c-10.1335,0 -19.8714,2.48925 -25.9083,6.53053 0.106415,-0.456382 1.16756,-2.36126 1.48523,-3.16408 0.43285,-1.09409 0.868315,-2.17602 1.19488,-3.34358 0.511289,-1.82749 1.41647,-5.52678 1.41647,-7.77078l0 -3.76335c0,-6.17965 -3.55418,-15.6569 -5.52025,-20.1604 -1.31437,-3.011 -2.5333,-5.93414 -3.92794,-8.91271 -0.72961,-1.55831 -2.62011,-8.0342 -2.62011,-10.1096l0 -0.442655c1.23855,0.0275842 3.9218,0.679932 5.28676,0.913156 1.74539,0.298328 3.5351,0.52763 5.31487,0.885049 2.66364,0.534951 7.96871,1.52236 10.8779,1.52236l1.55008 0c4.85064,0 9.51408,-1.82736 12.806,-3.46855 1.80579,-0.900344 3.36135,-2.01247 4.51218,-3.56935 0.595218,-0.805172 1.13514,-1.59426 1.51896,-2.57684 0.115174,-0.294406 1.03212,-2.79803 1.09226,-2.89281l0 -7.30525 -0.127332 0.215837 -0.537043 0.00562143 0.136745 1.87952 -0.0260155 0.666205c0,0.965971 -0.334148,3.5432 -0.660322,3.91827l-0.667512 -3.80767 -0.222243 0.000130731 0 -0.553515 -0.553515 0c0.211,0.905443 0.774973,2.22779 0.774973,3.32057l0 1.32823c0,5.7438 -8.00296,10.8473 -14.172,10.8473l-1.66081 0 -1.21789 -0.110729c-4.53584,-0.101055 -11.309,-2.67018 -14.1961,-4.51414 -1.83481,-1.17187 -3.76427,-2.53409 -5.26297,-4.03619 -0.714575,-0.716144 -4.2349,-4.18888 -4.2349,-5.06399l0 -0.442786 0.201587 -2.99008c0.858118,0.196881 4.45335,3.21154 4.89156,3.21154 0.0149033,0 0.219236,-0.108899 0.221458,-0.110729l-1.66525 -2.21027c0.835763,0.190214 2.64521,0.836155 3.58216,1.17932 1.23593,0.452721 2.26165,0.804257 3.70465,1.05604 1.29567,0.226165 2.5388,0.638359 4.1243,0.636398 1.34836,-0.00183023 3.08917,0.113344 4.64762,0.113344 0.412848,-0.198057 1.99757,-0.145896 2.64155,-0.347744 0.569726,-0.178578 1.80147,-0.373368 2.45003,-0.539265 1.43987,-0.368269 3.11153,-0.941263 4.31961,-1.54812 1.45164,-0.729217 2.52258,-1.31528 3.87199,-2.10608 0.475338,-0.278457 3.25416,-2.43199 3.43535,-2.43199 0.273489,0 1.44837,1.37987 1.68787,1.63322 1.09095,1.65728 3.50647,7.06902 1.75232,3.37168l0.660061 0.0445793c-0.228256,-3.18068 -3.35338,-6.57799 -5.16139,-8.19474 -2.30688,-2.06267 -4.36223,-3.56896 -6.85867,-5.42952 -2.51003,-1.87063 -5.02281,-3.01113 -7.95341,-4.44564 -0.750134,-0.367223 -1.20272,-0.707516 -2.12817,-0.971723 -0.869753,-0.248389 -1.52445,-0.694966 -2.15706,-0.942832 -0.649733,-0.254533 -4.27007,-1.29358 -4.42119,-1.66787l-0.664244 0 0 -0.221328 -7.28054 -2.08464c-0.678102,-0.343561 -8.52497,-2.02568 -9.88065,-2.12176 -1.59243,-0.112952 -3.52581,-0.6296 -5.31487,-0.77445 -1.87246,-0.151648 -3.58935,-0.221458 -5.75739,-0.221458l-3.54294 0.222373 0 0.220412c-1.56969,0 -3.66504,0.576524 -5.02517,0.953421 -0.871714,0.24146 -1.44902,0.574301 -2.2738,0.71536 -0.406312,0.0695489 -2.01561,0.876943 -2.11222,0.876943l-0.332187 0c-0.106546,0.263946 -0.916163,0.5777 -1.19946,0.682546 -0.838508,0.310094 -0.479521,0.109945 -1.21593,0.555476 -0.651694,0.394285 -1.64499,0.790792 -2.3661,1.17658 -1.40183,0.749873 -3.15571,1.76827 -4.377,2.70809 -0.714968,0.550377 -8.18088,5.79923 -8.33514,5.83518 -3.05741,2.65698 -13.5752,8.2618 -13.2475,9.66834 2.11719,1.01565 10.5636,5.17315 14.7976,3.69106 3.38358,0 5.29487,-0.449845 7.97184,-1.0733 -0.491287,0.670258 -4.14548,1.91625 -5.21643,2.31185 -1.2443,0.459781 -4.74109,1.11945 -6.40909,1.11945l-1.99299 0c-2.64312,0 -4.40459,-0.45246 -6.44595,-0.971985 -1.03696,-0.263815 -1.82344,-0.632738 -2.74483,-0.90858 -0.815892,-0.244205 -1.6174,-0.925575 -2.54546,-1.14167 1.2928,-0.686338 6.50321,-2.31485 2.54651,-2.84418l0.0726864 0.092819 -13.7128 10.7267 1.25567 -2.13196c0.104193,-0.371799 2.07209,-3.60072 2.41316,-4.15594 0.200672,-0.326566 0.463833,-0.682939 0.678232,-0.982443 0.32552,-0.454682 0.136352,-0.498477 0.589597,-1.07069 0.403959,-0.509851 0.706732,-1.44079 1.15396,-2.0564 0.837855,-1.15331 1.58969,-2.917 2.34244,-4.18875 0.79236,-1.33869 1.5289,-2.74025 2.30636,-4.1141 0.800204,-1.41425 1.55531,-2.78274 2.32688,-4.20418 0.682808,-1.25763 1.49452,-3.06982 2.24517,-4.17515 0.399906,-0.588943 0.764384,-1.47229 1.16442,-2.15667 0.372191,-0.636921 0.846222,-1.477 1.15435,-2.05588 0.315323,-0.592342 2.2019,-3.84035 2.21014,-4.21019 0.215706,-0.114128 1.24234,-1.59949 1.42026,-1.90083 0.216229,-0.366308 0.350359,-0.707908 0.592211,-1.0682 0.285647,-0.42566 0.462265,-0.320291 0.755886,-0.904658 0.437034,-0.869884 2.19419,-2.86968 2.90942,-3.73263 0.967409,-1.16704 2.13314,-2.36192 3.20735,-3.43469 0.580315,-0.579792 1.08101,-1.08428 1.65688,-1.66421 0.367746,-0.370361 1.5825,-1.07382 1.63714,-1.57322 0.329965,-0.0274535 2.95204,-2.16347 3.5636,-2.5252 1.26208,-0.746343 2.50114,-1.44654 3.76401,-2.21419 0.443962,-0.269959 3.78309,-1.84161 4.18718,-1.90174 0.320683,-0.0477168 1.75676,-0.679147 2.15602,-0.833148 1.14651,-0.442394 1.2728,0.0160799 2.16203,-0.827135 0.498346,0.239107 1.93155,-0.179363 2.32505,-0.442786l7.62763 -0.786739 0.0120272 0.122626 0.664375 0 6.31091 0.885572c1.91808,0.0426183 11.195,3.8699 11.847,4.75939l0.221458 0.110729c1.55518,0.822559 3.72544,2.1585 5.04347,3.25952 0.69392,0.57953 1.69793,1.24155 2.2759,1.82017 0.440825,0.441478 0.702025,0.534297 1.15998,0.943355 0.381211,0.340293 0.642935,0.79772 0.929105,1.0635 1.05251,0.977606 7.73522,7.8921 8.41737,7.96674l-0.0905966 0.0960873 1.99522 1.87926 0.0882434 -0.0937341c0.0358203,0.430366 2.14856,2.25145 2.57749,2.7362 0.819422,0.926621 1.6846,1.78016 2.52245,2.68051 4.22235,4.53702 12.4941,11.8598 13.833,17.6058l0.221458 0c0.0980482,-0.270613 0.127332,-0.332057 0.553646,-0.332057 0.403436,0 0.373498,2.28479 0.720589,2.08281 -0.58476,-4.53989 -7.80046,-14.1791 -10.5998,-17.1109 -2.15222,-2.25406 -4.24941,-4.22339 -6.42399,-6.41745 -2.07026,-2.08895 -4.46551,-4.02063 -6.58819,-6.14266 -2.18242,-2.18177 -4.19241,-4.28902 -6.31326,-6.52818 -2.14595,-2.26557 -4.01004,-4.37753 -6.81618,-6.02539 -1.3949,-0.819029 -2.49343,-1.63453 -4.0222,-2.39878 -1.52511,-0.762292 -2.85399,-1.27057 -4.49911,-1.92214 -1.4868,-0.588812 -3.35364,-1.02898 -5.05144,-1.3698 -0.509459,-0.102232 -5.4975,-0.736277 -5.54456,-0.766083l-4.76096 0c-0.273751,0.173611 -2.89177,0.293752 -3.47797,0.39703 -1.16324,0.204986 -2.22726,0.335848 -3.27481,0.600186 -2.25851,0.569856 -3.82872,1.02402 -5.91178,1.72748 -3.45561,1.1669 -7.28956,3.41339 -10.0787,5.30951 -2.35054,1.59806 -6.46805,5.07968 -8.10323,7.28459 -2.1917,2.95557 -4.63036,5.62012 -6.50217,8.885 -1.92711,3.36135 -3.79146,6.15573 -5.53541,9.85149 -1.61008,3.41208 -3.22069,7.1451 -5.12387,10.2632 -1.0265,1.68172 -1.85311,3.23167 -2.92314,4.82554 -1.01238,1.50798 -2.04646,3.04786 -2.95112,4.68723 -0.98545,1.78592 -1.61518,3.28462 -2.47408,5.16387 -0.515734,1.12834 -1.4336,5.33461 -1.77127,5.86655z"/>
  <path class="fil4" d="M38.0874 125.517l-3.54307 0 0.000784386 -0.0811839 4.0958 -0.140144 0 -0.110729c-0.0390886,0 -0.0767391,-0.000653655 -0.113344,-0.0016995l0.762162 0 0 -0.354804c0,-1.03408 0.370099,-3.30017 1.03918,-3.54817l-0.027715 1.18442 0.14315 2.95517 1.61636 0c0.0292837,-1.35333 0.361863,-2.96825 1.58707,-3.07871l-0.315715 3.17362 2.6541 0.141582 0.808048 0 0 -0.9461c0,-0.633522 0.204332,-1.04519 0.577308,-1.30117 0.323428,0.494817 0.577308,1.06258 0.577308,1.89246l0.00366047 0.555214 7.50082 0.745689 0 -0.591296c0,-0.63483 0.408404,-1.05003 1.02323,-1.0631l0.135568 1.85952 1.03474 0.149687 0 -1.06441c0,-0.748173 0.812101,-2.12895 1.27005,-2.12895 0.266038,0 0.346437,0.0824912 0.346437,0.354804l0 0.473246c0,0.746605 -0.461872,1.6408 -0.461872,2.60194l1.03918 0c0.522924,0 0.241199,-1.85573 1.82004,-1.89678l-0.321206 2.26452 5.19734 0.814846c-0.65274,-0.464618 -0.808048,-1.01382 -0.808048,-2.12882l0 -0.354804c0,-1.89508 1.80906,-2.40375 1.96266,-2.83856l1.27005 0c1.76748,0 2.0092,0.821383 2.65541,1.77415 0.175833,-0.283948 -1.28195,-2.13928 -0.941655,-2.75097 0.315585,-0.567111 0.787262,-1.42 1.59779,-1.43843 0.0299374,0.369969 0.115435,0.420169 0.115435,0.827919l0 0.946231c0,2.6741 -0.804911,6.13416 -0.883349,7.12052l1.46053 -0.024316c0.0766083,-0.293752 1.34365,-1.88671 1.63937,-2.34178 0.580838,-0.893415 0.985711,-1.61636 1.54733,-2.55448 0.865047,-1.44549 1.58825,-4.39805 3.74061,-4.44721 -0.370099,0.790007 -0.467494,1.89874 -1.00022,2.99675 -0.53299,1.09853 -1.02114,1.4919 -1.60956,2.37237 -1.03853,1.55452 -2.55488,2.98733 -3.50934,4.44747 2.30936,0 6.47288,-4.4174 7.65168,-5.99924 1.04336,-1.40026 3.39155,-5.80027 3.98573,-8.59713 0.190344,0.111252 0.365132,0.211915 0.506844,0.279895l0.885702 -5.53423 0 -2.43513c0,-4.26693 -1.47229,-9.35798 -2.84314,-12.3215 -1.59008,-3.43744 -2.65802,-7.48566 -4.03553,-11.1296 -1.37111,-3.62739 -2.42833,-7.72345 -3.52581,-11.6391 -1.07905,-3.84937 -1.77454,-8.49111 -1.77454,-13.39l0 -0.664113 -0.116743 -0.0130731 1.00245 -8.6204c-0.18067,-0.0482397 -2.73934,-1.61793 -3.20761,-1.88488 -1.10219,-0.628162 -2.31198,-1.17815 -3.56007,-1.64316 -2.08764,-0.77798 -5.83936,-1.78487 -8.62223,-1.78487l-3.32161 0c-2.39604,0 -7.41676,1.60028 -9.079,2.43513 -1.7433,0.875505 -6.04788,3.26422 -6.99371,4.65115 0.753795,2.48506 1.13174,4.90764 0.682677,7.19216l1.77154 0c0.826089,0 1.17684,0.239368 1.92658,0.639405 -0.57417,-0.52933 -2.36257,-1.81389 -1.57282,-2.45526 0.442263,0.308656 1.91429,1.31568 3.69655,3.35743 1.24913,1.29502 1.37503,3.23468 1.37503,4.87823l0 1.54955c-1.87534,5.76367 -6.5606,4.40995 -8.12088,4.13371 -0.582799,-0.210869 -1.11853,-0.669996 -1.73323,-0.813147 -0.168512,0.723204 -1.48981,3.1114 -1.88292,3.98403 -0.61522,1.36575 -1.15331,2.68652 -1.73689,4.12992 -1.06729,2.63894 -2.26112,5.83583 -2.97805,8.75544 -1.44353,5.87766 -3.25612,12.9931 -3.25612,20.2104l0 5.31278c0,2.1385 0.543318,4.67991 1.17148,6.24489 0.476384,1.18717 1.88226,4.27386 2.68404,4.82541l-0.312447 -4.20771 -0.0593519 -2.44245 0.497039 -3.99174 0.156746 0.00954336 1.33568 12.0618 -0.85302 0.0299374 -0.000784386 0.0868054 0.866746 0 0.0498085 0.449845 3.6538 -0.116089zm-0.369446 -0.567765c-0.0410495,-0.0369969 -0.0762162,-0.0785693 -0.106807,-0.124979 0.056345,0.00274535 0.115435,0.00418339 0.177663,0.00418339l0 0.118312 -0.0708562 0.00248389z"/>
  <path class="fil5" fill = "#212125" d="M5.20375 129.391c-0.160538,0.239761 -0.332057,0.3684 -0.332057,0.774712l0 0.110729c0,1.45072 2.51722,3.08564 3.75577,3.32933 0.5007,0.0984404 0.818768,0.316107 1.22207,0.549201 0.349575,0.20211 0.84596,0.326304 1.28953,0.481744 0.418078,0.146419 2.47068,0.841907 2.70077,0.841907l0.332187 0 0 0.221458c0.871453,0 5.20832,1.25423 6.33548,1.52511 2.13105,0.512465 4.29046,0.928321 6.55328,1.30744 2.22125,0.372191 4.46786,0.792622 6.73317,1.12742 2.27472,0.33624 4.58277,0.560444 6.90626,0.954597 2.30766,0.391539 4.79194,0.374283 7.08588,0.774973 2.24883,0.392847 5.04752,0.260155 7.26603,0.594826 4.1277,0.622672 10.3925,0.578092 15.0331,0.578092l5.4252 0c1.98227,0 4.41282,-0.0508543 6.11429,-0.307348 0.897207,-0.135307 2.0713,-0.17714 2.96485,-0.245905 0.941786,-0.0725557 1.58707,-0.332187 2.76784,-0.332187l0.332187 0 0 -0.221458 0.332057 0 1.76343 -0.270352c0.740329,-0.441086 1.67989,-0.385787 2.44297,-0.837463 0.365916,-0.216621 0.712484,-0.342515 1.05827,-0.602278 0.264338,-0.198711 0.661891,-0.659146 0.824912,-0.724903l0 -0.553515c0,-1.07029 -0.754056,-1.34666 -0.664244,-1.54955 -0.778895,-0.494032 -11.0703,-3.39365 -12.6456,-3.73982 -2.17223,-0.477299 -4.36485,-1.055 -6.57538,-1.61727 -2.25851,-0.574301 -4.42903,-0.945054 -6.7703,-1.42248 -8.73244,-1.78056 -19.8663,-2.51801 -30.3649,-2.51801l-4.20731 0c-1.68015,0 -5.74144,-0.101839 -7.15255,0.154916 -2.0177,0.366962 -5.04399,-0.0394808 -7.08601,0.332057 -1.86462,0.339116 -4.81012,0.368138 -6.79879,0.508413 -2.1819,0.154001 -4.54277,0.60097 -6.64244,0.775627z"/>
  <path class="fil6" d="M58.4462 5.81805l1.78513 -0.283817 -0.037912 -0.107461 0.961526 -0.338462 1.62106 -0.236885 0.420692 -0.240937 0.0239238 0.370361 3.21088 -2.87778 -6.31091 -0.885572 -0.664375 0 -0.0120272 -0.122626 -7.62763 0.786739c-0.3935,0.263423 -1.8267,0.681893 -2.32505,0.442786 -0.889232,0.843215 -1.01552,0.384741 -2.16203,0.827135 -0.399252,0.154001 -1.83533,0.785432 -2.15602,0.833148 -0.404089,0.0601362 -3.74322,1.63178 -4.18718,1.90174 -1.26286,0.767652 -2.50193,1.46785 -3.76401,2.21419 -0.611559,0.361733 -3.23363,2.49775 -3.5636,2.5252 -0.0546455,0.499392 -1.2694,1.20286 -1.63714,1.57322 -0.57587,0.579923 -1.07657,1.08441 -1.65688,1.66421 -1.07422,1.07278 -2.23994,2.26766 -3.20735,3.43469 -0.715229,0.862955 -2.47238,2.86275 -2.90942,3.73263 -0.293622,0.584367 -0.470239,0.478998 -0.755886,0.904658 -0.241852,0.360295 -0.375982,0.701895 -0.592211,1.0682 -0.177925,0.301335 -1.20456,1.7867 -1.42026,1.90083 -0.00823605,0.369838 -1.89481,3.61785 -2.21014,4.21019 -0.308133,0.578877 -0.782163,1.41895 -1.15435,2.05588 -0.400037,0.684377 -0.764515,1.56773 -1.16442,2.15667 -0.750657,1.10533 -1.56237,2.91752 -2.24517,4.17515 -0.771574,1.42144 -1.52668,2.78993 -2.32688,4.20418 -0.777457,1.37385 -1.514,2.77542 -2.30636,4.1141 -0.752749,1.27175 -1.50458,3.03544 -2.34244,4.18875 -0.447231,0.615612 -0.750004,1.54655 -1.15396,2.0564 -0.453244,0.572209 -0.264077,0.616004 -0.589597,1.07069 -0.214399,0.299505 -0.47756,0.655877 -0.678232,0.982443 -0.341077,0.555214 -2.30897,3.78414 -2.41316,4.15594l-1.25567 2.13196c3.60765,-2.9489 8.925,-5.96329 14.5749,-11.3983 17.679,-17.0068 40.7349,-42.899 42.2321,-43.1902z"/>
  <path class="fil7" d="M96.1043 54.7893l0.440825 0.125763c-8.96801,8.34665 -7.99969,1.18325 0.994993,9.50728 0.594172,0.549985 1.76513,0.648949 2.21785,1.32483l1.77245 0.439518 -1.44026 1.77415 1.21789 0.110729 1.66081 0c6.16906,0 14.172,-5.10348 14.172,-10.8473l0 -1.32823c0,-1.09278 -0.563973,-2.41512 -0.774973,-3.32057l-0.553646 -1.10677c-0.406835,-0.768567 -0.709215,-1.39281 -1.30156,-2.0194 -0.239499,-0.253357 -1.41438,-1.63322 -1.68787,-1.63322 -0.181193,0 -2.96001,2.15353 -3.43535,2.43199 -1.34941,0.790792 -2.42035,1.37686 -3.87199,2.10608 -1.20808,0.606853 -2.87974,1.17985 -4.31961,1.54812 -0.648556,0.165898 -1.8803,0.360687 -2.45003,0.539265 -0.643981,0.201849 -2.2287,0.149687 -2.64155,0.347744z"/>
  <path class="fil6" d="M87.5789 30.992l0 0.221328 0.664244 0c0.151125,0.374283 3.77146,1.41333 4.42119,1.66787 0.632607,0.247866 1.28731,0.694443 2.15706,0.942832 0.925444,0.264207 1.37804,0.6045 2.12817,0.971723 2.9306,1.43451 5.44338,2.57501 7.95341,4.44564 2.49644,1.86056 4.55179,3.36685 6.85867,5.42952 4.12129,3.68544 5.31892,7.07594 5.87845,12.5852 6.64597,-8.77793 -6.99241,-20.2692 -8.46601,-22.156 -1.40235,-1.80644 -2.92144,-3.94847 -4.48211,-5.62548 -58.5028,-62.2044 -52.4283,3.66308 -9.58428,-2.02463l0.332187 0 0 1.1069c0,0.273228 -0.471285,0.591819 -0.664244,0.774842l-0.772228 -0.134653 1.68316 1.76984c-0.480044,-0.0128116 -1.88606,-1.38104 -2.01822,-1.74591l-1.5472 -0.138967 -0.00274535 -0.19309 -2.01639 -0.332841 -0.00366047 -0.137006 -2.51945 2.57292z"/>
  <path class="fil8" d="M48.1629 30.5492l0 0.332057c0,1.75715 0.900736,4.44472 1.51099,5.68392 0.977868,1.98567 1.71205,2.67632 3.2769,4.02939 2.42977,2.10098 6.65107,3.3475 11.1557,3.3475 1.0767,-0.72072 3.21167,-3.70884 3.79852,-5.05733 0.827527,-1.90161 1.73741,-4.45047 1.73741,-7.11804l0 -1.10677c0,-0.644242 -0.0449715,-1.2375 -0.149295,-1.84305 -0.137268,-0.796805 -0.399122,-0.600578 -1.24325,-0.749481 -1.04872,-0.185115 -2.60651,-0.395984 -3.70047,-0.395984l-2.8787 0c-2.54938,0 -5.31448,0.354673 -7.33035,0.862563 -1.11866,0.281725 -2.13719,0.587636 -3.18814,0.908188 -0.883741,0.269567 -2.22805,0.929759 -2.98929,1.10703z"/>
  <path class="fil7" d="M5.31448 69.0678c0.180017,-0.114259 5.17956,-0.510112 6.07389,-0.79053 0.785955,-0.246428 2.08307,-0.269175 2.90785,-0.524362 0.866746,-0.267998 1.93979,-0.475599 2.84235,-0.700326 1.68708,-0.420039 3.77342,-1.05003 5.22793,-1.74696 0.754056,-0.36134 1.53609,-0.72255 2.2589,-1.17305 0.396246,-0.246951 0.727779,-0.425529 1.03513,-0.736146 0.205901,-0.208124 0.625809,-0.899037 0.801381,-0.969762l0 -0.885572c0,-0.249304 -0.428144,-0.66529 -0.442917,-1.32823 -0.45063,-0.120272 -0.911979,-0.999046 -1.35241,-1.30443 -0.319899,-0.22172 -0.486842,-0.33088 -0.750134,-0.578354 -0.405789,-0.381473 -0.457558,-0.244598 -0.832495,-0.606592 -0.39703,-0.383434 -2.98145,-1.79454 -3.60687,-1.94384l0.120142 -0.215575c-0.720197,-0.345391 -2.83464,-0.740722 -3.84218,-1.13971 -0.581753,-0.230348 -3.29534,-1.62734 -3.46515,-1.62734 -0.427098,0 -3.35325,2.29198 -3.73747,2.68338 -1.20403,1.22652 -2.04254,1.96293 -3.21088,3.32057 -1.16769,1.35699 -4.39622,6.3398 -4.56656,8.38508 1.25659,0.292707 3.09885,1.84958 4.5395,1.88174z"/>
  <path class="fil9" d="M19.5972 55.5641l-0.120142 0.215575c0.625417,0.149295 3.20984,1.5604 3.60687,1.94384 0.374936,0.361994 0.426706,0.225119 0.832495,0.606592 0.263292,0.247474 0.430236,0.356634 0.750134,0.578354 0.440433,0.305388 0.901782,1.18416 1.35241,1.30443 0.0147726,0.662937 0.442917,1.07892 0.442917,1.32823l0 0.885572c-0.175572,0.0707255 -0.59548,0.761639 -0.801381,0.969762 -0.307348,0.310617 -0.638882,0.489195 -1.03513,0.736146 -0.722812,0.450499 -1.50484,0.811709 -2.2589,1.17305 -1.45451,0.696927 -3.54085,1.32692 -5.22793,1.74696 -0.902567,0.224727 -1.97561,0.432327 -2.84235,0.700326 -0.824782,0.255187 -2.12189,0.277934 -2.90785,0.524362 -0.894331,0.280418 -5.89387,0.676271 -6.07389,0.79053l0.110729 0.221328c0.64385,0 1.6629,0.411803 2.31943,0.559136 0.798635,0.178971 1.59858,0.35415 2.54886,0.440433 1.83259,0.166159 3.52255,0.217929 5.65006,0.217929l-0.00117658 0.0881127 -2.98825 0.133346 -1.32862 0c-1.61152,0 -3.73943,-0.408404 -5.1389,-0.729087 -1.01957,-0.233616 -3.98416,-1.36261 -4.49362,-1.37398l0 0.664113c0,0.523055 0.213745,0.442394 0.332057,0.885441 1.20848,0.808963 1.48981,1.39581 3.13571,2.17824 1.86998,0.888971 2.30727,0.453244 4.50054,0.253487 1.53204,-0.139359 3.21324,-0.409449 4.67716,-0.637183 1.83193,-0.284994 3.12486,-0.247735 4.75913,-0.665944 3.09872,-0.792753 5.42141,-1.41425 8.02348,-2.71541 0.986757,-0.493509 6.45262,-3.48555 6.79108,-3.94742 -0.458604,0.106807 -2.19706,1.095 -2.80536,1.40144 -1.01513,0.51155 -1.89338,0.892892 -2.98576,1.33189 -1.14076,0.458604 -5.25996,2.0262 -6.49864,2.0262 0.399906,-0.253749 4.53453,-1.55269 5.41056,-1.89638 1.59087,-0.623979 3.45888,-1.5859 4.89117,-2.41552 6.94234,-4.02128 8.1899,-8.08649 8.20154,-8.08649l-0.596264 -4.57349 -3.07061 2.36139c-0.101839,-0.381211 -0.221458,-0.292968 -0.221458,-0.442786 0,-0.532467 1.48184,-1.32261 1.66081,-1.99234 -2.78274,1.86292 -8.17487,3.76335 -12.8434,3.76335l-0.454159 0.0992248 -5.30336 -0.65274z"/>
  <path class="fil3" d="M51.9359 64.5631l0.47207 -0.883088c1.37032,-2.56324 4.53205,-4.59023 6.55995,-5.20741 2.26021,-0.687906 5.56247,-0.460696 8.47241,1.09487l0.951198 0.514296 -0.127332 0.493771c-0.90139,-0.00392193 -5.78471,-1.12481 -5.88446,-1.10206 2.47944,1.32548 3.5832,2.9302 3.8546,4.89914 0.25754,1.86658 1.03983,3.7912 -0.258586,6.21992l-0.0471939 0.0883741c-1.00088,1.87246 -3.00119,2.78954 -4.45413,3.36737 -1.48641,0.591165 -3.73341,0.657577 -5.66379,-0.374413l-0.618227 -0.330488c-2.62129,-1.40131 -4.59938,-6.26829 -3.25651,-8.78028z"/>
  <path class="fil9" d="M100.09 67.919l2.12438 -1.73127c-2.58351,-0.640582 -7.77104,-3.15428 -7.77104,-6.12736l0 -0.664113c0,-0.435988 0.564235,-1.85154 0.72255,-2.04476 0.214922,-0.262116 1.28077,-1.74107 1.07435,-1.83468 1.05761,-0.40239 -0.118573,-0.84243 0.34343,-0.682285l-0.479521 -0.0870668c-1.55844,0 -3.29926,-0.115174 -4.64762,-0.113344 -1.58551,0.00196096 -2.82863,-0.410234 -4.1243,-0.636398 -1.44301,-0.251788 -2.46872,-0.603323 -3.70465,-1.05604 -0.936949,-0.343169 -2.7464,-0.98911 -3.58216,-1.17932l1.66525 2.21027c-0.00222243,0.00183023 -0.206555,0.110729 -0.221458,0.110729 -0.43821,0 -4.03344,-3.01466 -4.89156,-3.21154l-0.201587 2.99008 0 0.442786c0,0.875113 3.52032,4.34785 4.2349,5.06399 1.4987,1.5021 3.42816,2.86432 5.26297,4.03619 2.88706,1.84396 9.66023,4.41309 14.1961,4.51414z"/>
  <path class="fil10" d="M54.1187 63.1657c1.49308,-2.79281 5.59267,-4.04325 8.39567,-2.54494l0.589335 0.315062c2.86745,1.53295 3.92245,5.62012 2.32832,8.60223l-0.359902 0.673264c-0.223811,0.41847 -1.28286,1.32574 -1.63714,1.57701 -0.631953,0.448276 -1.20442,0.735885 -1.89913,0.945839 -1.03813,0.313624 -3.16199,0.388402 -4.46603,-0.308656l-0.841777 -0.450107c-2.96393,-1.58433 -3.77028,-5.70248 -2.10934,-8.8097z"/>
  <path class="fil8" d="M81.8215 45.7131c1.79154,-0.149033 5.12178,-2.75973 6.22724,-3.84702 0.904266,-0.889363 1.41961,-1.87115 1.93377,-3.15833 0.753403,-1.88619 0.253618,-2.29498 0.253618,-4.39518 -1.85599,-1.2426 -6.08879,-3.4313 -9.079,-3.4313l-0.332187 0c0.0759547,0.135045 0.110729,0.118312 0.110729,0.332057l0 2.43513 -0.221458 0 0 0.332057c0,1.04729 -0.396638,1.91599 -0.82086,2.61044 -0.311663,0.510243 -0.919169,1.86357 -1.50419,1.92763 -0.0482397,0.57953 -1.015,1.47661 -1.27698,1.93325 -0.291399,0.50789 -0.487757,0.453767 -0.669604,0.990941 -0.145896,0.43102 -0.212307,0.920215 -0.530506,1.06533l-0.0694181 0.769875c-0.104585,1.49948 1.035,1.42876 1.21789,1.88174 0.96035,0 2.09235,0.553384 3.65367,0.553384l0.110729 0c0.401475,0 0.618096,-0.0929497 0.941132,-0.221328l0.0554299 0.221328z"/>
  <path class="fil8" d="M31.4442 39.7361c0.283033,0.589597 0.22708,1.31607 0.718236,1.82788 0.449976,0.469063 0.824259,0.857072 1.27437,1.27162 0.393239,0.362256 2.79817,2.10045 2.87909,2.32414l0.0448407 -0.104977 2.56756 1.09539 0.0448407 -0.104977 0.00143804 0.200149 2.32374 0.131908 1.21789 0 0.00196096 -0.19845 1.76944 -0.133607c0.163544,-0.404743 1.86265,-0.824912 2.34518,-1.0869 0.4739,-0.257409 1.86226,-1.01133 1.86226,-1.56956l0.0245774 -0.335717 -0.148641 -0.990549 -0.0702025 0.0857595 -2.55435 -2.29629 0.0912502 -0.447884c-0.43468,-0.0475861 -1.55008,-1.61701 -1.55008,-2.21367l-0.324605 -0.00248389 -0.782556 -2.65397c-0.508151,-0.205117 -0.324605,-1.63074 -0.442786,-1.88161 -1.88083,0.437949 -10.3749,5.8306 -11.2935,7.08379z"/>
  <path class="fil7" d="M87.2467 53.0183l-0.221458 -1.77101 3.6538 0c0.707516,0 0.84243,-0.221328 1.54995,-0.221328l0.775104 0 0 -0.221328 0.885702 0 0.00196096 -0.205771 1.21593 -0.126286 0 -0.221458c1.53347,0 5.13197,-2.16477 6.13298,-2.94511 1.08481,-0.845568 1.43438,-1.3396 2.35159,-2.18726 0.499131,-0.461219 1.76474,-2.51827 2.03378,-2.61553l0 -0.332057c0,-0.298067 0.208254,-0.46854 0.442917,-0.553515l0 -0.332057c-2.25576,-1.19318 -3.85382,-2.31302 -6.75382,-2.98851 -1.72617,3.59641 -3.33887,5.47201 -6.55459,7.61521 -2.60678,1.73728 -6.41706,3.45339 -10.7177,3.45339l-1.33568 0.0576524 -3.64661 -0.500438c0.694966,0.948322 8.26102,4.09541 10.1862,4.09541z"/>
  <path class="fil9" d="M87.2467 53.0183l4.98229 0.774842 2.43591 0c6.11272,0 15.5051,-3.10578 17.4936,-6.86259 -0.878904,-1.66028 -4.44237,-4.54225 -6.08958,-5.64496l0 0.332057c-0.234662,0.0849751 -0.442917,0.255448 -0.442917,0.553515l0 0.332057c-0.269044,0.0972638 -1.53465,2.15432 -2.03378,2.61553 -0.917208,0.84766 -1.26678,1.34169 -2.35159,2.18726 -1.00101,0.780333 -4.59951,2.94511 -6.13298,2.94511l0 0.221458 -1.21593 0.126286 -0.00196096 0.205771 -0.885702 0 0 0.221328 -0.775104 0c-0.707516,0 -0.84243,0.221328 -1.54995,0.221328l-3.6538 0 0.221458 1.77101z"/>
  <path class="fil8" d="M19.2652 48.4803c0.357941,1.34038 7.93851,3.98468 10.5182,3.98468l1.99299 0c2.38845,0 7.40329,-1.01735 8.52536,-1.99234 -6.37313,0 -10.4323,-3.52725 -12.5112,-7.85876 -0.861648,0.200672 -3.86153,2.03496 -4.60461,2.59148 -0.543579,0.406965 -3.83473,3.25193 -3.92075,3.27494z"/>
  <path class="fil7" d="M42.7377 32.6523c0.118181,0.250873 -0.0653655,1.67649 0.442786,1.88161l0.782556 2.65397 0.324605 0.00248389c0,0.596656 1.1154,2.16608 1.55008,2.21367l-0.0912502 0.447884 2.55435 2.29629 0.0702025 -0.0857595 0.148641 0.990549 -0.0245774 0.335717c0,0.558221 -1.38836,1.31215 -1.86226,1.56956 -0.482528,0.261985 -2.18164,0.682154 -2.34518,1.0869l-1.76944 0.133607 -0.00196096 0.19845 -1.21789 0 -2.32374 -0.131908 -0.00143804 -0.200149 -0.0448407 0.104977 -2.56756 -1.09539 -0.0448407 0.104977c-0.0809225,-0.223681 -2.48585,-1.96188 -2.87909,-2.32414 -0.450107,-0.414548 -0.824389,-0.802557 -1.27437,-1.27162 -0.491156,-0.511812 -0.435203,-1.23828 -0.718236,-1.82788l-2.54651 2.21367c0.1842,0.383826 0.258847,1.41464 0.474161,1.9611 0.206686,0.524493 0.58476,1.21959 0.898514,1.64747 0.759285,1.03552 1.51426,1.67728 2.6877,2.29407 1.91952,1.00911 4.93915,2.28818 7.7866,2.28818 0.140013,0 2.25851,-1.50393 2.5907,-1.72683 0.956036,-0.641628 1.81193,-1.04519 2.81294,-1.61544 0.905443,-0.515864 5.20231,-2.38819 6.33261,-2.41342l0 -0.221328c-1.96214,-0.163283 -4.72854,-3.18735 -5.69255,-4.60304 -0.883611,-1.29764 -2.94354,-5.3818 -2.96498,-7.40643l-1.08572 0.498216z"/>
  <path class="fil8" d="M90.9004 35.9727c0,1.26809 -0.811709,4.12796 -1.25332,5.05615 -0.749481,1.57492 -1.48576,2.5069 -2.70312,3.60674 -2.0377,1.84095 -5.87819,2.9591 -9.77266,2.9591l-0.445662 0.0254925 -1.4366 -0.136091 -0.00444485 0.138706 5.42965 0.746735 1.55008 0c8.33854,0 13.1302,-5.48861 16.4972,-10.5151 -0.887533,-1.32509 -4.93287,-3.20984 -7.30747,-3.20984l-0.553646 0 0 1.3281z"/>
  <path class="fil10" d="M37.6445 64.9724c0,1.52864 0.528807,2.6673 1.24613,3.51379 0.485796,0.573255 2.13,1.68839 3.07192,1.68839l0.885702 0c2.72927,0 4.98242,-2.28465 4.98242,-4.98085 0,-2.78888 -2.17053,-5.20218 -4.87169,-5.20218 -2.95504,0 -5.31448,2.08503 -5.31448,4.98085z"/>
  <path class="fil8" d="M70.196 31.5454l0 0.553384c0,2.59423 -0.849751,5.24388 -1.73428,7.01058 -0.498869,0.996562 -1.01225,1.80435 -1.65231,2.66482 -0.611298,0.821513 -1.58956,1.71872 -2.03875,2.38937 2.48585,0 6.09533,-3.6138 7.39127,-5.11851 1.5021,-1.74382 3.45927,-5.97127 3.45927,-9.15993 0,-0.611167 -3.25834,-1.66028 -4.20731,-1.66028l-1.21789 0c-0.548024,0 0,2.49252 0,3.32057z"/>
  <path class="fil7" d="M20.5938 51.3581l-1.32862 -0.553384c-0.537174,-0.12511 -1.63767,-0.885572 -1.99299,-0.885572 -0.223419,0 -4.39504,2.34884 -4.5395,2.54585 0.928059,0.216098 1.72957,0.863739 2.54546,1.10794 0.921392,0.275842 1.70787,0.644765 2.74483,0.90858 2.04136,0.519525 3.80283,0.971985 6.44595,0.971985l1.99299 0c1.668,0 5.16479,-0.659668 6.40909,-1.11945 1.07095,-0.395592 4.72514,-1.64159 5.21643,-2.31185 -2.67698,0.623456 -4.58826,1.1069 -7.97184,1.1069 -3.19219,0 -7.4046,-0.755364 -9.52179,-1.77101z"/>
  <path class="fil7" d="M81.8215 45.7131l-0.0554299 -0.221328c-0.323036,0.128378 -0.539657,0.221328 -0.941132,0.221328l-0.110729 0c-1.56132,0 -2.69332,-0.553384 -3.65367,-0.553384 -0.182893,-0.452983 -1.32247,-0.382257 -1.21789,-1.88174l0.0694181 -0.769875c0.318199,-0.145111 0.38461,-0.634307 0.530506,-1.06533 0.181847,-0.537174 0.378205,-0.483051 0.669604,-0.990941 0.261985,-0.456643 1.22874,-1.35372 1.27698,-1.93325 0.585021,-0.0640582 1.19253,-1.41739 1.50419,-1.92763 0.424222,-0.694443 0.82086,-1.56315 0.82086,-2.61044l0 -0.332057 0.221458 0 0 -2.43513c0,-0.213745 -0.0347744,-0.197012 -0.110729,-0.332057l0.332187 0 -1.21789 -0.221328 -0.885702 0 0 0.442655c0,0.929889 -0.997869,4.03566 -1.32757,4.76057 -0.596787,1.31162 -1.45961,2.79568 -2.35499,3.84414 -0.901913,1.05604 -2.05771,2.23524 -3.17977,3.01949 -0.632869,0.442394 -1.17279,0.806479 -1.86213,1.23776 -0.463964,0.290484 -1.76487,0.742683 -2.01535,1.08441 0.923876,0.215183 2.19014,0.859295 3.29481,1.13357 1.14978,0.285516 2.54651,0.526715 4.01266,0.526715l1.32862 0c1.39751,0 4.09567,-0.457166 4.87169,-0.99617z"/>
  <path class="fil3" d="M68.7566 74.4913c-0.383303,4.60382 -0.232047,4.75599 -2.22256,7.75496 -0.929105,1.39987 -2.8417,2.37434 -4.32497,3.27102 -4.46316,2.69763 -13.4761,2.8183 -17.7082,-0.281725 -2.84118,-2.08098 -5.19564,-4.10077 -5.19564,-9.08397 -0.0807917,-0.120403 -0.399775,-0.553384 -0.553646,-0.553384 -0.275581,0 -1.79049,1.18547 -2.32505,1.32823l0.0298067 1.38575 1.18808 -0.610906c0.825697,3.54294 2.4414,6.91018 4.67089,9.05547 1.30064,1.25162 2.04986,2.16673 3.81643,3.04734 1.29607,0.645942 3.49352,1.51151 5.35265,1.51151l1.32862 0c5.14675,0 8.93259,-2.01639 11.9138,-4.24993 2.42611,-1.81768 4.91548,-6.97829 4.91548,-11.2461l0.332187 0c0.333364,0 1.36836,0.442786 1.66081,0.442786 0.258717,0 0.553515,-0.143935 0.553515,-0.442786l0 -0.110598c0,-0.609337 -1.59936,-1.32823 -2.32505,-1.32823l-0.332187 0c-0.379773,0 -0.431151,0.0746474 -0.774973,0.110598z"/>
  <path class="fil11" d="M11.5148 73.6058l4.98242 0.442786 0.664244 0c4.41949,0 7.92648,-1.20874 11.1401,-2.47761 1.38784,-0.548024 8.23579,-4.35413 8.23579,-5.38115l0 -2.21367c-0.221981,0.0802688 -2.09326,1.51687 -2.50232,1.8152 -0.865962,0.6313 -1.67845,1.1656 -2.61449,1.70303 -1.53622,0.882173 -4.0388,2.27106 -5.77962,2.85569 -2.1185,0.711438 -4.2179,1.60446 -6.56923,2.0662 -1.1971,0.235054 -2.36152,0.519525 -3.67838,0.639405 -0.591296,0.0538612 -3.60386,0.311532 -3.87853,0.550116z"/>
  <path class="fil7" d="M94.5542 68.4037l1.32862 0c0.913679,0 1.29607,-0.31663 1.99299,-0.332057l0 -0.221458 -0.775104 0c-1.73519,0 -5.2397,-1.09814 -6.71304,-1.59034 -1.90828,-0.637706 -4.01318,-1.73924 -5.5562,-2.74692 -1.7297,-1.12978 -3.15402,-2.28217 -4.58761,-3.71524 -0.760201,-0.759939 -1.24155,-1.34771 -1.93835,-2.15745 -0.348529,-0.405005 -1.64172,-2.29328 -1.7986,-2.4082 0.274666,3.29939 3.77996,8.04636 6.04356,9.56506 1.81638,1.21841 3.02315,1.75742 5.26166,2.48794 0.590904,0.192828 2.56324,0.628685 3.20069,0.67418 1.1992,0.0856288 2.63161,0.444485 3.54137,0.444485z"/>
  <path class="fil7" d="M44.177 31.9882c0.805172,3.45535 1.79847,5.61633 3.95827,7.77549 1.56956,1.5689 5.08635,3.73577 8.11003,3.73577 -0.0896814,-0.122364 -2.75032,-1.70133 -3.23075,-2.08307 -0.984535,-0.782294 -1.94645,-1.74513 -2.63737,-2.78705 -1.17945,-1.77873 -2.76797,-5.06648 -2.76797,-7.96936l-0.332187 0c-1.35699,0 -2.57801,0.548809 -3.10002,1.32823z"/>
  <path class="fil7" d="M66.0993 44.4956c0.688299,0 0.926229,0.221328 1.21802,0.221328 2.15366,0 6.4032,-3.59667 7.50906,-5.00059 1.4868,-1.88776 3.56281,-5.78132 3.56281,-9.05639l-0.0141189 -0.279241 -1.97887 -0.495601c-0.19492,0.836417 -0.3165,1.7416 -0.510766,2.58847 -0.244467,1.06637 -0.438079,1.43085 -0.749481,2.35002 -0.463964,1.36901 -1.42196,2.91635 -2.21471,3.98442 -0.692874,0.93355 -2.16961,2.39983 -3.10159,3.09767 -0.513119,0.384088 -3.64465,2.30675 -3.72034,2.58991z"/>
  <path class="fil5" d="M0.110729 136.697l0 0.664113c0,1.35921 1.69244,2.76705 2.8787,2.76705l0.774973 0c1.80291,0 3.43234,-1.24391 3.43234,-2.98851l0 -0.442655c0,-1.27057 -1.93848,-2.54585 -3.32161,-2.54585l-1.21789 0c-0.168512,0.417424 -1.24992,0.603454 -1.61531,0.930935 -0.329442,0.295321 -0.931197,1.08886 -0.931197,1.61492z"/>
  <path class="fil8" d="M66.21 128.506l0.885833 0.221458c0,-1.11749 0.606592,-2.65554 1.39451,-2.88209l-0.284209 3.18382 1.48157 0.158315 1.39398 -4.00207c-0.619665,-0.891585 -0.851451,-1.66028 -2.54651,-1.66028l-1.21789 0c-0.147334,0.406965 -1.88226,0.882957 -1.88226,2.65645l0 0.332057c0,1.04349 0.149033,1.55753 0.774973,1.99234z"/>
  <path class="fil5" fill = "#212125" d="M103.965 140.571l-5.09302 -1.88161c-0.450237,0.312708 -1.21789,0.810401 -1.21789,1.54955l0 0.442786c0,0.87642 1.51962,1.88161 2.54651,1.88161l1.21789 0c0.476907,0 1.27698,-0.466448 1.63845,-0.686468 0.664767,-0.404351 0.540442,-0.726733 0.908057,-1.30587z"/>
  <path class="fil5" fill = "#212125" d="M19.5972 141.567c0,0.443047 0.228256,0.550116 0.332187,0.99617 0.713007,0.0593519 0.170212,0.442786 1.21789,0.442786l0.221458 0c1.32927,0 1.10716,-0.88348 1.66081,-1.1069l0 -0.332057c0,-1.08716 -0.795629,-1.54955 -1.88226,-1.54955 -0.968716,0 -1.55008,0.581099 -1.55008,1.54955z"/>
  <path class="fil3" d="M49.9344 77.1477l0.560574 0.0419646 1.62616 -0.267737 0.138313 -0.880996c-0.532859,0.124064 -0.69392,0.332057 -1.43935,0.332057l-0.885702 0c-0.666336,0 -1.61387,-0.784909 -1.88174,-1.21815 -0.646988,-1.04611 -0.358464,-1.02911 -1.5506,-1.65976 0,2.35093 1.09278,3.65262 3.43234,3.65262z"/>
  <path class="fil3" d="M59.59 92.0376l1.01081 0.126417c1.90423,0.321598 4.77809,-2.1168 4.9279,-3.91605 -0.338855,-0.0809225 -0.238061,-0.126155 -0.505537,-0.126155 -0.0103277,0 -2.27145,1.82344 -2.62639,2.04803 -0.486842,0.308264 -0.915509,0.55796 -1.45726,0.816807 -0.761508,0.363955 -1.32927,0.13949 -1.34954,1.05095z"/>
  <path class="fil5" fill = "#212125" d="M93.5577 141.677l0 0.885441c0.550247,0.199103 0.246689,0.774842 1.32862,0.774842 0.550247,0 1.21789,-0.526584 1.21789,-1.1069l0 -0.442786c0,-0.546978 -0.449192,-0.99617 -0.996562,-0.99617l-0.442786 0c-0.463833,0 -1.10716,0.483443 -1.10716,0.885572z"/>
  <path class="fil5" d="M1.05827 131.665l-0.0618357 0.493902c0,0.596918 0.547632,0.99617 1.10729,0.99617l0.664244 0c0.356111,0 0.664375,-0.59012 0.664375,-0.99617 0,-0.474423 -0.321598,-0.771836 -0.442917,-1.10677l-1.38836 0.0490241 -0.542795 0.563843z"/>
  <path class="fil5" d="M26.9047 140.349l0 0.774712c0.367615,0.133084 0.501876,0.553515 0.996562,0.553515 0.54541,0 1.32862,-0.315977 1.32862,-0.774842 0,-0.871583 -0.56332,-1.1069 -1.43935,-1.1069 -0.628032,0 -0.480828,0.390101 -0.885833,0.553515z"/>
  <path class="fil3" d="M59.0428 65.0949c0.640712,-1.19841 2.85699,-2.15941 4.04272,-1.5255l1.07526 0.574824c1.94266,1.03853 2.16151,2.85595 1.14403,4.75926 -0.963095,1.80173 -3.28318,2.39251 -4.95104,1.50092 -1.7314,-0.925575 -2.36623,-3.33547 -1.31097,-5.30951z"/>
  <path class="fil5" fill = "#212125" d="M10.6291 137.25l0 0.553384c0,0.728825 0.69222,0.885572 1.43935,0.885572l0 -0.221458 0.332057 0 0 -0.332057 0.221458 0 0 -0.885441c-0.303688,-0.109945 -0.520179,-0.442786 -0.885702,-0.442786 -0.797982,0 -0.668558,0.284078 -1.10716,0.442786z"/>
  <path class="fil5" fill = "#212125" d="M105.626 143.891l1.32862 0 0.110729 -1.32823c-0.240414,-0.253487 -0.380035,-0.332057 -0.885702,-0.332057l-0.442917 0 -0.276757 0.387356 -0.0554299 0.830142c0,0.248258 0.0877205,0.243029 0.221458,0.442786z"/>
  <path class="fil3" d="M40.9967 65.9278l0 0.812624c0,0.978783 1.46066,2.43852 2.43944,2.43852l0.406573 0c2.62103,0 3.15715,-0.722419 4.06534,-2.43852 -0.500569,-2.14896 -1.04023,-3.25115 -3.65864,-3.25115 -1.48576,0 -3.25272,1.1218 -3.25272,2.43852z"/>
  <path class="fil12" d="M50.7773 27.1859c1.36012,-0.376897 3.45548,-0.953421 5.02517,-0.953421l0 -0.220412 3.54294 -0.222373c2.16804,0 3.88493,0.0698103 5.75739,0.221458 1.78905,0.14485 3.72243,0.661499 5.31487,0.77445 6.03533,1.15409 13.0752,3.51967 18.5417,5.08491 31.0767,3.57941 -12.128,-24.3284 -10.4595,-24.8973l-0.221458 -0.110729c-0.183416,-0.250219 -1.04899,-0.732878 -2.24125,-1.29816 -3.04669,-1.44484 -8.22703,-3.43064 -9.60572,-3.46123l-3.21088 2.87778 -0.0239238 -0.370361 -0.420692 0.240937 -1.62106 0.236885 -0.961526 0.338462 0.037912 0.107461 -1.77154 0 -0.013596 0.283817 -0.907665 0.253487 0.0354281 0.126809 -0.332057 0c-0.184069,0 -0.988849,0.553515 -1.21802,0.553515l-0.553515 0 -0.067065 0.510766 -0.414156 -0.0287608 -0.119488 0.00980482 -0.838639 0.725688 -0.332187 0c-0.381865,0 -2.80183,2.29041 -3.21088,2.3244l-0.0377812 0.25584 -0.847921 0.408273 0 0.553384 -0.0993555 -0.0963487c-62.6426,68.1048 -26.1483,26.6052 1.2745,15.771z"/>
  <g id="_30422504">
   <path id="_51691888" class="fil13 str1" d="M36.1973 96.9126c0.89786,1.8756 1.78722,3.81538 2.71241,5.77321 0.921915,1.95103 1.87194,3.91958 3.0072,5.81086 1.17566,1.95861 2.49814,3.83251 3.93775,5.623 1.41386,1.75846 2.98838,3.40907 4.57375,5.05537 1.22064,-1.25162 2.455,-2.54782 3.64321,-3.95043 1.20625,-1.42392 2.41042,-2.994 3.71799,-4.62304 1.44693,-1.80252 3.09479,-3.72544 4.99928,-5.73569 2.00528,-2.1168 4.21843,-4.28863 6.5474,-6.57015 -0.420823,-0.315715 -0.83707,-0.620188 -1.27201,-0.875767 -1.15985,-0.612605 -2.17942,-1.42065 -3.33455,-2.00332 -2.41316,0.834456 -4.72148,1.65349 -6.99162,2.18007 -2.23655,0.518871 -4.45688,0.932896 -6.51929,0.582537 -3.95971,-0.672742 -7.56684,-2.51827 -10.9996,-4.11188 -0.958781,0.526192 -1.92214,1.2741 -2.81072,1.8905 -0.411541,0.297021 -0.809094,0.623979 -1.21122,0.954728z"/>
   <path id="_30422528" class="fil14 str2" d="M32.4653 96.1458c1.14102,2.11235 2.28243,4.38119 3.456,6.75422 1.19266,2.41146 2.47421,4.89587 3.98926,7.33688 1.57662,2.53997 3.32449,4.99928 5.22388,7.34054 1.84252,2.27119 3.83016,4.4089 5.72432,6.54753 1.85193,-1.5974 3.68282,-3.21232 5.37343,-5.01392 1.68225,-1.79271 3.25821,-3.81355 4.86371,-5.98382 1.77572,-2.40022 3.6436,-5.09602 6.09847,-7.78777 2.63135,-2.88523 5.80851,-5.66052 9.16163,-8.44195 -0.107592,-0.308264 -3.93304,-3.55196 -4.48499,-3.84885 -0.556522,-0.270613 -4.89182,-2.40179 -5.08347,-2.31904 -2.70312,1.13135 -5.29918,2.26465 -7.84752,3.05191 -2.49121,0.769613 -4.94804,1.23933 -7.2676,1.0299 -2.19066,-0.197796 -4.28196,-1.05016 -6.27613,-1.9845 -2.03352,-0.952898 -3.95644,-1.95822 -5.83648,-2.80392 -0.163675,-0.0639274 -3.25494,2.35656 -3.65249,2.68365 -0.584629,0.503576 -1.18782,1.14259 -1.75376,1.63492 -0.289961,0.266953 -1.54799,1.5336 -1.68826,1.80422zm10.139 13.4559c0.00941263,-2.28152 0.176356,-4.5629 0.514557,-6.83318 0.339901,-2.28152 0.738891,-4.55545 1.08964,-6.82939 -1.37032,-0.650256 -2.69855,-1.28182 -3.99396,-1.86056 -0.95865,0.526192 -1.91743,1.2741 -2.80601,1.88684 -0.416247,0.300681 -0.809094,0.627639 -1.21122,0.954597 0.972769,2.03718 1.93534,4.15136 2.95099,6.28071 1.02807,2.15549 2.17929,4.28863 3.456,6.40098zm6.46791 -11.7983c-0.313362,1.63871 -0.645419,3.26618 -0.99617,4.89378 1.76787,-1.33816 3.59641,-2.79647 5.47645,-4.45021 -1.534,0.0112429 -3.02577,-0.139098 -4.48028,-0.44357zm11.2287 -0.902044c-2.60024,2.54455 -5.12099,4.84489 -7.51546,6.88573 0.556522,1.23658 1.09513,2.49657 1.76787,3.71354 0.707385,1.27973 1.63205,2.54089 2.65632,3.84885 1.47308,-1.84919 3.11833,-3.86088 5.0789,-5.94983 2.1317,-2.27132 4.51767,-4.61938 7.043,-7.09255 -0.420823,-0.315846 -0.83707,-0.620188 -1.27201,-0.875767 -1.15514,-0.616527 -2.17471,-1.42078 -3.32985,-2.00711 -1.50589,0.526192 -2.98367,1.02232 -4.42877,1.47713zm-5.23316 17.1205c-0.8138,-0.0188253 -1.61819,-0.0525538 -2.41316,-0.0902044 -1.6276,-2.21759 -3.0259,-4.4578 -4.12495,-6.75801 -0.453636,0.345783 -0.893154,0.691567 -1.3281,1.03356 -0.0373891,1.68015 0.0607899,3.35273 0.224465,5.0253 -0.958781,-0.22172 -1.89874,-0.469716 -2.81542,-0.729087 1.81455,2.30779 3.76479,4.52538 5.81779,6.67159 1.5621,-1.59374 3.09597,-3.30762 4.63938,-5.15315z"/>
  </g>
  <path class="fil15 str3" d="M105.623 126.519c-2.78457,2.08817 -10.4876,12.5911 -10.4876,7.94517 0,-6.29117 -0.548155,-11.8489 -4.13149,-16.8438 -6.23691,-8.694 -11.4145,-21.3689 -19.3862,-27.6492 -1.2877,-1.01447 0.540442,-2.16791 1.90684,-3.49588 4.23581,-4.11672 5.07733,-3.50058 2.54246,-11.7589 -1.01186,-4.30066 11.4677,11.3992 13.0301,13.9835 4.15751,6.87645 11.1184,15.2075 15.5725,21.6109 0.502399,0.722419 2.49735,7.96099 2.86026,9.53421 1.52942,6.63041 4.58173,3.35312 -1.90684,6.67395z"/>
  <path class="fil2" d="M105.941 126.201c-2.78457,2.08817 -10.4876,12.5911 -10.4876,7.94517 0,-6.29117 -0.548155,-11.8489 -4.13149,-16.8438 -6.23691,-8.694 -11.4145,-21.3689 -19.3862,-27.6492 -1.2877,-1.01447 0.540442,-2.16791 1.90684,-3.49588 4.23581,-4.11672 5.07733,-3.50058 2.54246,-11.7589 -1.01186,-4.30066 11.4677,11.3992 13.0301,13.9835 4.15751,6.87645 11.1184,15.2075 15.5725,21.6109 0.502399,0.722419 2.49735,7.96099 2.86026,9.53421 1.52942,6.63041 4.58173,3.35312 -1.90684,6.67395z"/>
  <ellipse class="fil16" transform="matrix(1.0974 -0.0305006 -0.0305006 -1.0974 63.7906 65.9707)" rx="0.265384" ry="0.530768"/>
  <ellipse class="fil16" transform="matrix(1.0974 -0.0114287 -0.0305006 -0.4112 63.7906 67.0634)" rx="0.265384" ry="0.530768"/>
  <ellipse class="fil16" transform="matrix(1.0974 -0.0305006 -0.0305006 -1.0974 46.456 65.1632)" rx="0.265384" ry="0.530768"/>
  <ellipse class="fil16" transform="matrix(1.0974 -0.0114287 -0.0305006 -0.4112 46.456 66.2558)" rx="0.265384" ry="0.530768"/>
 </g>
</svg>
